<?xml version="1.0" encoding="UTF-8"?>
<svg version="1.1" xmlns="http://www.w3.org/2000/svg" width="89" height="94">
<path d="M0 0 C29.37 0 58.74 0 89 0 C89 31.02 89 62.04 89 94 C59.63 94 30.26 94 0 94 C0 62.98 0 31.96 0 0 Z " fill="#191C21" transform="translate(0,0)"/>
<path d="M0 0 C0.92468582 -0.00960754 1.84937164 -0.01921509 2.80207825 -0.02911377 C3.80413803 -0.03336365 4.80619781 -0.03761353 5.83862305 -0.04199219 C7.38141182 -0.0505423 7.38141182 -0.0505423 8.95536804 -0.05926514 C11.13511117 -0.06872338 13.31486865 -0.07525238 15.49462891 -0.07910156 C18.82634531 -0.08879735 22.1574424 -0.11980935 25.48901367 -0.15136719 C27.60554646 -0.15789812 29.72208367 -0.16314824 31.83862305 -0.16699219 C32.83461014 -0.17933899 33.83059723 -0.19168579 34.85676575 -0.20440674 C41.51223515 -0.18302486 44.7842253 0.71160571 49.81713867 5.1887207 C52.38381112 9.6224944 52.11057546 13.68119006 52.0690918 18.71972656 C52.07483215 20.25259056 52.07483215 20.25259056 52.08068848 21.81642151 C52.08340613 23.97405992 52.0760553 26.13173137 52.05932617 28.28930664 C52.0379373 31.58392202 52.05912235 34.87635123 52.0847168 38.17089844 C52.08207306 40.27051261 52.07694715 42.37012542 52.0690918 44.46972656 C52.07718872 45.4511412 52.08528564 46.43255585 52.09362793 47.44371033 C52.01572552 53.15500852 51.53203684 56.7463836 47.5378418 61.16113281 C43.00508345 65.15493191 37.75267519 64.64549707 32.0144043 64.66503906 C30.48509781 64.68001686 30.48509781 64.68001686 28.92489624 64.69529724 C26.77150522 64.71046139 24.61804396 64.71752356 22.46459961 64.71704102 C19.18053302 64.72359749 15.8994981 64.77808513 12.6159668 64.83496094 C10.51962293 64.84376473 8.42326475 64.84971779 6.3269043 64.85253906 C5.35065094 64.87409561 4.37439758 64.89565216 3.36856079 64.91786194 C-2.59465194 64.85831492 -5.86174931 63.89275041 -10.21255493 59.74229431 C-12.47308113 56.8819809 -12.60200493 54.1197657 -12.67089844 50.6171875 C-12.69983437 49.23995514 -12.69983437 49.23995514 -12.72935486 47.8348999 C-12.7872559 43.6362315 -12.83637229 39.43773098 -12.8671875 35.23876953 C-12.8887663 33.02734765 -12.92286747 30.81601114 -12.96972656 28.60498047 C-13.03680068 25.40976987 -13.064199 22.21632358 -13.08325195 19.02050781 C-13.11108261 18.03798035 -13.13891327 17.05545288 -13.16758728 16.04315186 C-13.14958912 10.00530722 -12.20908757 6.76628241 -7.94813538 2.40826416 C-5.26983143 0.1604525 -3.41299545 0.0285788 0 0 Z " fill="#E60B0B" transform="translate(24.462158203125,14.8388671875)"/>
<path d="M0 0 C1.65 0 3.3 0 5 0 C5.82065069 1.87144695 6.6311584 3.74734336 7.4375 5.625 C7.88996094 6.66914062 8.34242187 7.71328125 8.80859375 8.7890625 C9.95801705 11.88685251 10.57311223 14.73210054 11 18 C9.68 18 8.36 18 7 18 C6.67 16.68 6.34 15.36 6 14 C4.02 14.33 2.04 14.66 0 15 C-0.33 15.99 -0.66 16.98 -1 18 C-2.65 18 -4.3 18 -6 18 C-4.02 12.06 -2.04 6.12 0 0 Z " fill="#FBDBD9" transform="translate(41,37)"/>
</svg>
